<svg id="Layer_1" data-name="Layer 1" xmlns="http://www.w3.org/2000/svg" viewBox="0 0 122.88 93.83"><title>mind-map</title><path d="M41.21,72.44l-7.4,7.22-.26.23a9.56,9.56,0,1,1-4.74-4.56,3.67,3.67,0,0,1,.37-.43l6.24-6.08a18.57,18.57,0,0,0,2.12,1.7,17.37,17.37,0,0,0,3.67,1.92ZM77.33,25.07a9.11,9.11,0,0,1,2.71.49,11.42,11.42,0,0,1,5,3.48,11.25,11.25,0,0,1,2.63,6,10.7,10.7,0,0,1-.13,3.13,12.56,12.56,0,0,1,2.37,2.92,10.29,10.29,0,0,1,1.46,5.47,9.85,9.85,0,0,1-2,5.61,13.33,13.33,0,0,1-3.14,3,12.33,12.33,0,0,1-2.14,7.42,10.09,10.09,0,0,1-6.06,4.23,9.78,9.78,0,0,1-11.43,6.62,7.87,7.87,0,0,1-4.72-3.66,8.5,8.5,0,0,1-5.41,3.83,9,9,0,0,1-7.25-1.81l-.15-.13A8.81,8.81,0,0,1,46,67a8.83,8.83,0,0,1-2.25-.46,11.63,11.63,0,0,1-4.93-3.38,11.33,11.33,0,0,1-2.67-5.78,10.57,10.57,0,0,1,.08-3.45,12.61,12.61,0,0,1-2.15-2.6L34,51.13a10.32,10.32,0,0,1-1.5-5.39,10.08,10.08,0,0,1,2-5.86,13.76,13.76,0,0,1,3-3q0-.47,0-.93a12.2,12.2,0,0,1,2.72-7.29A9.76,9.76,0,0,1,46,25.18a7.81,7.81,0,0,1,.26-.82,9.2,9.2,0,0,1,4-4.68,8.78,8.78,0,0,1,6.17-1.08,8.38,8.38,0,0,1,5.21,3.53,8.4,8.4,0,0,1,5.21-3.53,8.66,8.66,0,0,1,5.67.81,9.35,9.35,0,0,1,4,3.88,8.27,8.27,0,0,1,.71,1.78ZM64.2,26.71v36.8a2.25,2.25,0,0,1,.33.85c.5,3,1.79,4.52,3.23,4.91a5,5,0,0,0,4.14-1A4.57,4.57,0,0,0,74,64.85c0-1.51-1.13-3.24-4.2-4.81a2.17,2.17,0,1,1,2-3.86c3.48,1.78,5.38,4,6.15,6.18a6.11,6.11,0,0,0,2.62-2.23,8.11,8.11,0,0,0,1.32-5.63,2.18,2.18,0,0,1,1-2.33,9.77,9.77,0,0,0,3-2.58,5.55,5.55,0,0,0,1.15-3.15,6,6,0,0,0-.86-3.16,8.52,8.52,0,0,0-2.3-2.52,2.18,2.18,0,0,1-.84-2.5,6.41,6.41,0,0,0,.31-2.77,6.87,6.87,0,0,0-1.62-3.65,7.23,7.23,0,0,0-3.1-2.18,4.57,4.57,0,0,0-1.42-.25,9.31,9.31,0,0,1-1.75,3,2.16,2.16,0,1,1-3.31-2.78,3.72,3.72,0,0,0,.63-4.33,5.09,5.09,0,0,0-2.17-2.06,4.35,4.35,0,0,0-2.84-.44c-1.38.29-2.72,1.45-3.59,3.87Zm8.52,12.38a2.17,2.17,0,0,1,2.54-3.52,13.21,13.21,0,0,1,1.06.86,12.28,12.28,0,0,1,4.05,8.17,13,13,0,0,1-2.49,8.67,13.65,13.65,0,0,1-.88,1.1,2.17,2.17,0,0,1-3.23-2.9c.25-.28.45-.53.62-.75A8.7,8.7,0,0,0,76,44.94a7.92,7.92,0,0,0-2.62-5.28c-.22-.2-.46-.39-.7-.57ZM59.85,28.63v0h-.05l0,0h-.18v0c-.82-3.31-2.38-4.83-4-5.16a4.49,4.49,0,0,0-3.12.59,4.87,4.87,0,0,0-2.12,2.42c-.48,1.31-.18,2.93,1.48,4.47a2.16,2.16,0,1,1-2.94,3.17,9.79,9.79,0,0,1-2.68-3.9,5.77,5.77,0,0,0-2.59,1.87,7.88,7.88,0,0,0-1.73,4.69A8.51,8.51,0,0,0,42,37.72a2.18,2.18,0,0,1-1,2.14,10.24,10.24,0,0,0-2.93,2.59,5.77,5.77,0,0,0-1.19,3.33,6.12,6.12,0,0,0,.88,3.12l.09.13A8.27,8.27,0,0,0,40,51.33a2.18,2.18,0,0,1,.82,2.47,6.39,6.39,0,0,0-.3,3,7,7,0,0,0,1.66,3.54,7.15,7.15,0,0,0,3,2.1,5.36,5.36,0,0,0,1.06.24C47,60.32,49,58,52.64,56.18a2.17,2.17,0,1,1,2,3.87c-3.24,1.65-4.46,3.51-4.46,5.12a4.14,4.14,0,0,0,1.64,3.12l.11.09a4.65,4.65,0,0,0,3.71,1c1.61-.33,3.17-1.85,4-5.18a2.2,2.2,0,0,1,.26-.61V28.63ZM46.68,36.82a2.16,2.16,0,1,1,3,3.09,7.94,7.94,0,0,0-2.37,5.35,8.63,8.63,0,0,0,2,5.82,2.17,2.17,0,0,1-3.38,2.72A13,13,0,0,1,43,45.09a12.19,12.19,0,0,1,3.67-8.27Zm-37.1-.65a9.57,9.57,0,0,1,9,6.36,2.43,2.43,0,0,1,.38,0l7.48-.1a17.45,17.45,0,0,0-.35,3.23v0A16.29,16.29,0,0,0,26.42,49l-7.36.1a4.07,4.07,0,0,1-.5,0,9.58,9.58,0,1,1-9-12.93ZM25.09,0a9.58,9.58,0,0,1,9.58,9.58,9.45,9.45,0,0,1-1.31,4.84h0l6.55,6.24-.3.18a17.22,17.22,0,0,0-4.32,3.77h0c-.13.15-.25.31-.37.46l-6.16-5.86a3.24,3.24,0,0,1-.51-.61A9.58,9.58,0,1,1,25.09,0ZM98.24,74.67A9.58,9.58,0,1,1,89.68,80l-.25-.22L82.21,73c.24-.34.46-.69.67-1.06a18.41,18.41,0,0,0,2.17-1.28,17.51,17.51,0,0,0,2.3-1.94L94,74.87a3.77,3.77,0,0,1,.49.58,9.63,9.63,0,0,1,3.8-.78Zm0-73.61a9.59,9.59,0,0,1,0,19.17,9.4,9.4,0,0,1-3.93-.85,3.63,3.63,0,0,1-.48.57l-4.44,4.27a17.88,17.88,0,0,0-3-2.61h0A18.63,18.63,0,0,0,84,20.21l5.25-5a3.09,3.09,0,0,1,.39-.33A9.58,9.58,0,0,1,98.24,1.06ZM113.3,36.17a9.58,9.58,0,1,1-9,12.88,3.29,3.29,0,0,1-.45,0H97.58a16.71,16.71,0,0,0,.23-2.34,15.9,15.9,0,0,0-.45-4.32h6.49a3.29,3.29,0,0,1,.45,0,9.59,9.59,0,0,1,9-6.28Z"/></svg>